<svg id="visual" viewBox="0 0 900 600" width="900" height="600" xmlns="http://www.w3.org/2000/svg" xmlns:xlink="http://www.w3.org/1999/xlink" version="1.1"><rect x="0" y="0" width="900" height="600" fill="#fcfcfc"></rect><path d="M0 471L150 406L300 411L450 417L600 476L750 452L900 486L900 601L750 601L600 601L450 601L300 601L150 601L0 601Z" fill="#6abcff"></path><path d="M0 485L150 499L300 492L450 454L600 457L750 507L900 494L900 601L750 601L600 601L450 601L300 601L150 601L0 601Z" fill="#ff6161"></path><path d="M0 515L150 541L300 535L450 522L600 541L750 538L900 517L900 601L750 601L600 601L450 601L300 601L150 601L0 601Z" fill="#6abcff"></path></svg>